<svg width="339" height="112" viewBox="0 0 339 112" fill="none" xmlns="http://www.w3.org/2000/svg">
<g clip-path="url(#clip0_12_76)">
<path d="M36.7349 27.2774C33.1638 29.4201 27.4502 34.4196 24.1171 44.4185C19.6587 57.7936 25.5455 65.3689 24.5932 67.0353C24.0101 68.0559 24.7161 68.2987 22.4506 67.7496C12.3564 64.7022 9.11862 72.7491 5.30947 77.7485C1.50033 82.748 -0.404238 60.1312 0.071905 52.9891C0.548048 45.8469 1.34905 38.5276 5.30947 30.3722C7.02298 26.8438 8.64248 24.4206 10.5471 21.8017C12.4516 19.1829 17.832 12.8978 24.1171 8.70779C31.9734 3.47022 32.8144 3.03319 39.1156 1.32766C45.68 -0.449095 51.9715 -0.0106749 56.4949 0.227397C61.0181 0.465469 64.8274 3.47021 65.5416 6.56514C66.2558 9.66007 65.6791 19.9196 54.8283 21.5637C46.972 22.7541 44.1323 23.7701 40.7822 25.1347C37.6481 26.4113 38.4609 26.2418 36.7349 27.2774Z" fill="#00B89B"/>
<path d="M80.2483 5.98191C78.7245 5.02963 67.1543 0.506254 67.0745 1.45855C66.9948 2.41085 70.0266 7.74364 68.503 12.886C66.5983 19.3139 60.5668 20.2662 63.0273 21.6946C65.4877 23.123 72.5501 25.7419 75.8832 28.8368C76.7827 29.6304 78.7245 31.408 79.296 32.1698C80.0101 33.1221 83.5812 37.4073 84.5335 39.0739C85.2953 40.407 88.4482 43.4385 89.9294 44.7875C92.5482 47.4064 95.4417 50.1995 97.5477 52.4059C102.547 57.6434 107.547 62.8334 108.499 61.6906C109.69 60.2622 109.055 46.6921 108.102 39.55C106.754 35.2648 104.96 30.6937 102.865 27.6464C100.77 24.5991 97.5481 20.1868 96.199 18.3617C94.8499 16.5364 90.7233 12.886 90.7233 12.886C85.0096 8.12455 82.1528 7.17226 80.2483 5.98191Z" fill="#FF9500"/>
<path d="M98.0046 61.6882L88.4817 52.1653H87.2058C87.047 54.9364 86.5868 61.2188 86.0154 64.1784C85.4441 67.1381 83.0369 70.799 81.9048 72.2596C79.6945 75.521 76.2545 78.9388 76.2545 78.9388L70.7788 83.2242C70.7788 83.2242 63.8017 89.0663 61.8178 91.209C60.4845 92.9231 46.1856 109.275 49.0424 109.988C51.8993 110.703 56.7231 109.493 58.2467 109.302C60.1512 109.064 65.4709 108.298 69.9123 106.922C75.6745 105.136 78.8962 103.775 83.9584 100.494C89.5373 96.8781 93.0052 93.3517 96.5763 89.0663C100.147 84.7811 103.718 77.1628 104.671 75.2582C105.623 73.3536 106.337 69.7825 106.337 69.3064C106.337 68.9256 105.702 68.1955 105.385 67.878L98.0046 61.6882Z" fill="#C8114A"/>
<path d="M38.6701 82.798C37.9083 82.417 32.1395 77.9955 29.9968 76.329C27.9285 75.2154 27.4564 74.0943 24.9973 72.7579C23.7766 72.0946 22.4471 71.4863 20.2359 71.0914C18.8075 70.6946 16.2438 71.1324 14.1487 72.0848C12.0537 73.0371 9.46666 76.132 8.67308 77.5605C8.29216 78.1318 7.72082 81.1316 8.43501 83.7503C9.14921 86.3691 11.1548 88.5782 11.7681 89.4639C12.7909 90.9414 15.8681 93.584 18.8075 95.8509C21.1925 97.6902 23.8115 99.9106 25.9496 101.088C27.6902 102.047 30.0391 103.629 31.9014 104.66C36.7402 107.336 42.1058 109.741 43.4315 109.463C44.7572 109.183 48.3283 104.183 49.5187 102.041L54.5181 95.6128C56.4228 93.6289 60.0891 90.0419 60.4699 88.7088C60.8509 87.3755 60.0732 86.7248 59.5176 86.8041C57.0576 86.8041 52.1851 86.7977 49.5187 86.6072C46.1856 86.3691 39.6224 83.2741 38.6701 82.798Z" fill="#FF9500"/>
<path d="M69.9137 45.7097L48.7451 65.7872L39.123 56.661" stroke="#0161B9" stroke-width="11.4274" stroke-linecap="round" stroke-linejoin="round"/>
</g>
<path d="M127.211 55.8135C127.211 52.4855 127.931 49.5255 129.371 46.9335C130.811 44.3095 132.811 42.2775 135.371 40.8375C137.963 39.3655 140.891 38.6295 144.155 38.6295C148.155 38.6295 151.579 39.6855 154.427 41.7975C157.275 43.9095 159.179 46.7895 160.139 50.4375H151.115C150.443 49.0295 149.483 47.9575 148.235 47.2215C147.019 46.4855 145.627 46.1175 144.059 46.1175C141.531 46.1175 139.483 46.9975 137.915 48.7575C136.347 50.5175 135.563 52.8695 135.563 55.8135C135.563 58.7575 136.347 61.1095 137.915 62.8695C139.483 64.6295 141.531 65.5095 144.059 65.5095C145.627 65.5095 147.019 65.1415 148.235 64.4055C149.483 63.6695 150.443 62.5975 151.115 61.1895H160.139C159.179 64.8375 157.275 67.7175 154.427 69.8295C151.579 71.9095 148.155 72.9495 144.155 72.9495C140.891 72.9495 137.963 72.2295 135.371 70.7895C132.811 69.3175 130.811 67.2855 129.371 64.6935C127.931 62.1015 127.211 59.1415 127.211 55.8135ZM177.357 73.0935C174.733 73.0935 172.365 72.5335 170.253 71.4135C168.173 70.2935 166.525 68.6935 165.309 66.6135C164.125 64.5335 163.533 62.1015 163.533 59.3175C163.533 56.5655 164.141 54.1495 165.357 52.0695C166.573 49.9575 168.237 48.3415 170.349 47.2215C172.461 46.1015 174.829 45.5415 177.453 45.5415C180.077 45.5415 182.445 46.1015 184.557 47.2215C186.669 48.3415 188.333 49.9575 189.549 52.0695C190.765 54.1495 191.373 56.5655 191.373 59.3175C191.373 62.0695 190.749 64.5015 189.501 66.6135C188.285 68.6935 186.605 70.2935 184.461 71.4135C182.349 72.5335 179.981 73.0935 177.357 73.0935ZM177.357 65.9895C178.925 65.9895 180.253 65.4135 181.341 64.2615C182.461 63.1095 183.021 61.4615 183.021 59.3175C183.021 57.1735 182.477 55.5255 181.389 54.3735C180.333 53.2215 179.021 52.6455 177.453 52.6455C175.853 52.6455 174.525 53.2215 173.469 54.3735C172.413 55.4935 171.885 57.1415 171.885 59.3175C171.885 61.4615 172.397 63.1095 173.421 64.2615C174.477 65.4135 175.789 65.9895 177.357 65.9895ZM212.192 45.6375C215.264 45.6375 217.728 46.6615 219.584 48.7095C221.44 50.7255 222.368 53.5095 222.368 57.0615V72.7095H214.208V58.1655C214.208 56.3735 213.744 54.9815 212.816 53.9895C211.888 52.9975 210.64 52.5015 209.072 52.5015C207.504 52.5015 206.256 52.9975 205.328 53.9895C204.4 54.9815 203.936 56.3735 203.936 58.1655V72.7095H195.728V37.1895H203.936V49.5255C204.768 48.3415 205.904 47.3975 207.344 46.6935C208.784 45.9895 210.4 45.6375 212.192 45.6375ZM236.28 45.5895V52.4055H247.272V58.7415H236.28V66.1335H248.712V72.7095H228.072V39.0135H248.712V45.5895H236.28ZM252.408 59.2695C252.408 56.5175 252.92 54.1015 253.944 52.0215C255 49.9415 256.424 48.3415 258.216 47.2215C260.008 46.1015 262.008 45.5415 264.216 45.5415C266.104 45.5415 267.752 45.9255 269.16 46.6935C270.6 47.4615 271.704 48.4695 272.472 49.7175V45.9255H280.68V72.7095H272.472V68.9175C271.672 70.1655 270.552 71.1735 269.112 71.9415C267.704 72.7095 266.056 73.0935 264.168 73.0935C261.992 73.0935 260.008 72.5335 258.216 71.4135C256.424 70.2615 255 68.6455 253.944 66.5655C252.92 64.4535 252.408 62.0215 252.408 59.2695ZM272.472 59.3175C272.472 57.2695 271.896 55.6535 270.744 54.4695C269.624 53.2855 268.248 52.6935 266.616 52.6935C264.984 52.6935 263.592 53.2855 262.44 54.4695C261.32 55.6215 260.76 57.2215 260.76 59.2695C260.76 61.3175 261.32 62.9495 262.44 64.1655C263.592 65.3495 264.984 65.9415 266.616 65.9415C268.248 65.9415 269.624 65.3495 270.744 64.1655C271.896 62.9815 272.472 61.3655 272.472 59.3175ZM294.299 65.9415H305.915V72.7095H285.131V66.1815L296.267 52.6935H285.227V45.9255H305.675V52.4535L294.299 65.9415ZM337.791 45.9255L320.991 85.4295H312.159L318.303 71.7975L307.407 45.9255H316.575L322.767 62.6775L328.911 45.9255H337.791Z" fill="#0161B9"/>
<defs>
<clipPath id="clip0_12_76">
<rect width="109.205" height="111.419" fill="white"/>
</clipPath>
</defs>
</svg>
